<?xml version="1.0" standalone="no"?>
<!DOCTYPE svg PUBLIC "-//W3C//DTD SVG 20010904//EN"
 "http://www.w3.org/TR/2001/REC-SVG-20010904/DTD/svg10.dtd">
<svg version="1.0" xmlns="http://www.w3.org/2000/svg"
 width="512.000000pt" height="512.000000pt" viewBox="0 0 512.000000 512.000000"
 preserveAspectRatio="xMidYMid meet">
<metadata>
Created by potrace 1.13, written by Peter Selinger 2001-2015
</metadata>
<g transform="translate(0.000000,512.000000) scale(0.100000,-0.100000)"
fill="#000000" stroke="none">
<path d="M1675 4539 c-484 -280 -969 -559 -1077 -621 l-197 -113 0 -1245 0
-1245 1079 -622 1080 -622 1080 622 1079 622 0 1245 0 1245 -477 274 c-262
151 -738 425 -1057 609 -319 184 -591 340 -605 347 -24 11 -77 -18 -905 -496z
m928 -451 c30 -70 56 -131 147 -343 20 -47 63 -143 80 -180 11 -22 40 -85 66
-140 86 -184 324 -655 445 -882 22 -40 56 -106 78 -145 21 -40 62 -118 91
-173 29 -55 66 -124 82 -153 16 -30 27 -56 24 -59 -3 -3 -43 11 -88 32 -75 35
-208 86 -208 80 0 -1 28 -19 63 -41 105 -65 320 -228 342 -262 7 -9 36 -62 65
-117 58 -110 91 -170 139 -257 18 -33 27 -58 20 -58 -6 0 -52 23 -103 52 -279
157 -535 277 -741 346 -72 24 -202 60 -230 65 -14 2 -19 9 -17 22 2 11 6 67 9
125 12 236 -78 448 -222 523 -77 39 -175 16 -246 -60 -50 -53 -73 -95 -104
-188 -23 -68 -28 -98 -29 -200 0 -66 1 -142 4 -170 5 -47 4 -50 -20 -53 -32
-4 -158 -38 -235 -64 -210 -71 -462 -189 -741 -346 -108 -61 -123 -64 -96 -19
11 17 34 59 52 92 73 135 94 173 135 245 23 41 61 111 85 155 24 44 60 109 80
145 20 36 59 106 85 155 26 50 60 113 75 140 89 161 191 355 328 625 85 168
158 309 162 313 4 4 29 -10 56 -31 27 -22 63 -47 79 -56 17 -9 46 -26 65 -38
19 -11 51 -27 70 -35 34 -13 33 -13 -15 29 -82 70 -215 201 -215 211 0 5 25
66 56 136 31 69 72 164 91 211 18 47 40 99 48 117 8 17 15 34 15 37 0 3 9 25
20 49 16 35 51 122 91 225 5 12 12 22 17 22 5 0 25 -37 45 -82z"/>
</g>
</svg>
