<?xml version="1.0" standalone="no"?>
<!DOCTYPE svg PUBLIC "-//W3C//DTD SVG 20010904//EN"
 "http://www.w3.org/TR/2001/REC-SVG-20010904/DTD/svg10.dtd">
<svg version="1.0" xmlns="http://www.w3.org/2000/svg"
 width="512.000000pt" height="512.000000pt" viewBox="0 0 512.000000 512.000000"
 preserveAspectRatio="xMidYMid meet">
<metadata>
Created by potrace 1.13, written by Peter Selinger 2001-2015
</metadata>
<g transform="translate(0.000000,512.000000) scale(0.100000,-0.100000)"
fill="#000000" stroke="none">
<path d="M2481 3988 c-60 -151 -131 -317 -247 -584 l-13 -31 97 -95 c53 -52
120 -112 147 -133 28 -21 55 -43 60 -48 6 -4 -15 3 -45 16 -71 32 -218 118
-260 153 -18 15 -35 23 -39 18 -5 -5 -60 -110 -122 -234 -156 -312 -342 -660
-769 -1435 -45 -82 -91 -165 -102 -182 -12 -21 -15 -33 -8 -33 7 0 64 30 129
66 317 180 646 320 886 378 l70 17 0 177 c1 166 3 182 27 249 96 262 291 337
445 170 105 -113 158 -339 129 -544 -8 -51 -7 -52 21 -59 92 -21 253 -71 353
-110 142 -57 416 -190 573 -279 65 -36 121 -65 126 -63 4 2 -44 99 -108 216
l-116 214 -100 80 c-104 84 -210 158 -282 198 -24 13 -41 25 -40 27 7 6 146
-46 232 -86 48 -23 89 -41 91 -41 3 0 -9 24 -24 53 -473 877 -753 1448 -978
1990 -27 64 -51 117 -54 117 -3 0 -39 -82 -79 -182z"/>
</g>
</svg>
