<?xml version="1.0" standalone="no"?>
<!DOCTYPE svg PUBLIC "-//W3C//DTD SVG 20010904//EN"
 "http://www.w3.org/TR/2001/REC-SVG-20010904/DTD/svg10.dtd">
<svg version="1.0" xmlns="http://www.w3.org/2000/svg"
 width="1200.000000pt" height="1200.000000pt" viewBox="0 0 1200.000000 1200.000000"
 preserveAspectRatio="xMidYMid meet">
<metadata>
Created by potrace 1.13, written by Peter Selinger 2001-2015
</metadata>
<g transform="translate(0.000000,1200.000000) scale(0.100000,-0.100000)"
fill="#000000" stroke="none">
<path d="M5946 11867 c-576 -1437 -919 -2258 -1223 -2922 -90 -198 -167 -366
-170 -374 -7 -16 486 -509 672 -672 251 -221 472 -398 717 -575 72 -52 128
-94 125 -94 -20 0 -337 144 -562 255 -447 221 -732 396 -1038 638 -48 38 -90
67 -93 65 -2 -3 -85 -169 -183 -369 -765 -1563 -1935 -3754 -3783 -7083 -219
-395 -397 -720 -395 -723 2 -2 154 81 338 185 1781 1007 3087 1562 4246 1803
81 17 149 32 151 33 1 2 -6 45 -17 97 -131 640 -71 1350 163 1912 193 466 508
806 846 915 112 36 183 45 308 39 181 -8 317 -55 477 -162 382 -257 667 -761
794 -1405 40 -202 52 -323 58 -595 5 -278 -6 -454 -42 -657 -31 -172 -32 -155
6 -163 632 -130 1223 -320 1961 -630 613 -258 1515 -714 2387 -1209 162 -91
296 -165 298 -163 4 5 -988 1839 -1007 1863 -15 17 -540 439 -715 575 -343
264 -734 518 -1150 746 -104 58 -181 102 -170 99 396 -100 870 -265 1199 -417
117 -55 337 -170 394 -207 12 -8 22 -12 22 -9 0 2 -228 432 -506 953 -779
1460 -1582 3000 -1994 3824 -641 1282 -1018 2106 -1710 3737 -190 447 -347
813 -350 813 -3 0 -27 -55 -54 -123z"/>
</g>
</svg>
